<?xml version="1.0" encoding="iso-8859-1"?>
<!-- Generator: Adobe Illustrator 18.0.0, SVG Export Plug-In . SVG Version: 6.00 Build 0)  -->
<!DOCTYPE svg PUBLIC "-//W3C//DTD SVG 1.1//EN" "http://www.w3.org/Graphics/SVG/1.1/DTD/svg11.dtd">
<svg version="1.1" id="_x30_" xmlns="http://www.w3.org/2000/svg" xmlns:xlink="http://www.w3.org/1999/xlink" x="0px" y="0px"
	 viewBox="0 0 512 512" style="enable-background:new 0 0 512 512;" xml:space="preserve">
<g>
	<rect style="opacity:0;fill:#FFFFFF;" width="512" height="512"/>
	<path style="opacity:0.1;fill:#040000;" d="M512,299.93V512H262.247L131.431,381.184c-19.61-26.88-30.259-59.238-30.259-93.184
		c0-12.186,1.382-24.166,4.096-35.789L284.723,72.704l7.271,7.219L512,299.93z"/>
	<g>
		<g>
			<path style="opacity:0.1;fill:#040000;" d="M298.027,133.484c-13.518-3.708-27.664-5.59-42.038-5.59
				c-14.431,0-28.577,1.939-42.095,5.647c0.627-2.11,1.483-4.107,2.51-5.989c1.141-2.281,2.51-4.392,4.107-6.331
				c11.522-2.624,23.329-3.936,35.478-3.936c12.035,0,23.899,1.313,35.421,3.936c1.597,1.939,2.966,4.05,4.107,6.274
				C296.544,129.377,297.342,131.373,298.027,133.484z"/>
			<path style="fill:#EDEDEC;" d="M277.664,122.562h-43.36V99.661c0-11.924,9.756-21.68,21.68-21.68l0,0
				c11.924,0,21.68,9.756,21.68,21.68V122.562z"/>
			<path style="fill:#FFFEF9;" d="M274.675,94.207h-37.382c-7.553,0-13.676-6.123-13.676-13.676l0,0
				c0-7.522,6.154-13.676,13.676-13.676h37.382c7.522,0,13.676,6.154,13.676,13.676l0,0
				C288.352,88.084,282.229,94.207,274.675,94.207z"/>
			<path style="fill:#FFFEF9;" d="M414.626,286.52c0,42.38-16.541,82.193-46.487,112.138
				C338.194,428.661,298.38,445.146,256,445.146c-33.881,0-66.165-10.552-93.031-30.117c-6.73-4.905-13.176-10.381-19.165-16.37
				c-1.369-1.369-2.738-2.795-4.05-4.221c-4.392-4.735-8.442-9.639-12.149-14.774c-19.621-26.865-30.231-59.206-30.231-93.144
				c0-12.207,1.369-24.185,4.05-35.821c6.559-28.691,21.047-55.043,42.38-76.376c19.792-19.735,43.863-33.653,70.101-40.783
				c0.057,0,0.114-0.057,0.171-0.057c1.654-0.457,3.251-0.856,4.905-1.255c0.399-0.114,0.799-0.171,1.198-0.285
				c1.312-0.286,2.624-0.57,3.993-0.855c1.255-0.228,2.566-0.514,3.879-0.742c0.798-0.114,1.654-0.285,2.453-0.399
				c1.084-0.171,2.225-0.342,3.308-0.513c2.852-0.4,5.704-0.742,8.556-0.97c1.369-0.114,2.681-0.228,4.05-0.285
				c1.369-0.057,2.738-0.171,4.05-0.171c1.825-0.057,3.707-0.114,5.533-0.114c1.825,0,3.651,0.057,5.419,0.114
				c1.426,0,2.852,0.114,4.221,0.171c1.198,0.057,2.396,0.171,3.594,0.285c0.97,0.057,1.882,0.114,2.795,0.228
				c2.795,0.286,5.533,0.628,8.214,1.027c2.168,0.343,4.335,0.684,6.503,1.141l1.027,0.171c2.167,0.456,4.392,0.969,6.56,1.483
				c0.456,0.114,0.855,0.228,1.312,0.342c0.799,0.171,1.597,0.399,2.395,0.684c24.413,6.616,46.944,19.108,65.881,36.733
				c1.426,1.312,2.852,2.681,4.221,4.05C398.085,204.326,414.626,244.14,414.626,286.52z"/>
			<path style="fill:#FFFEF9;" d="M299.624,144.207h-87.327c0-3.708,0.57-7.301,1.597-10.666c0.627-2.11,1.483-4.107,2.51-5.989
				c1.141-2.281,2.51-4.392,4.107-6.331c0.798-1.027,1.654-1.996,2.566-2.909c6.617-6.617,15.8-10.78,25.896-10.78h14.031
				c11.465,0,21.732,5.362,28.406,13.69c1.597,1.939,2.966,4.05,4.107,6.274c1.027,1.883,1.825,3.879,2.51,5.989v0.057
				C299.054,136.963,299.624,140.499,299.624,144.207z"/>
			<path style="opacity:0.1;fill:#040000;" d="M298.027,133.484c-13.518-3.708-27.664-5.59-42.038-5.59
				c-14.431,0-28.577,1.939-42.095,5.647c0.627-2.11,1.483-4.107,2.51-5.989c12.777-3.308,26.01-4.962,39.585-4.962
				c13.518,0,26.751,1.654,39.528,4.905C296.544,129.377,297.342,131.373,298.027,133.484z"/>
			<g>
				<path style="fill:#3AAE36;" d="M383.766,286.509c0,11.103-1.417,21.876-4.079,32.142c-2.956,11.414-7.451,22.205-13.246,32.148
					c-4.061,6.968-8.764,13.515-14.028,19.561c-3.896,4.476-8.104,8.684-12.581,12.58c-6.046,5.264-12.593,9.967-19.561,14.028
					c-9.936,5.796-20.727,10.29-32.141,13.246c-10.272,2.663-21.045,4.08-32.148,4.08c-11.103,0-21.875-1.417-32.141-4.08
					c-11.414-2.956-22.205-7.444-32.142-13.246c-6.968-4.061-13.515-8.764-19.567-14.028c-4.477-3.896-8.684-8.104-12.581-12.58
					c-5.264-6.046-9.967-12.593-14.028-19.561c-5.796-9.942-10.29-20.734-13.246-32.148c-2.663-10.266-4.079-21.039-4.079-32.142
					c0-11.103,1.417-21.876,4.079-32.142c2.956-11.414,7.451-22.205,13.246-32.148c4.061-6.968,8.764-13.515,14.028-19.561
					c3.896-4.477,8.104-8.684,12.581-12.581c6.052-5.264,12.599-9.967,19.567-14.028c9.936-5.802,20.728-10.29,32.142-13.246
					c10.266-2.663,21.039-4.079,32.141-4.079c11.103,0,21.876,1.417,32.148,4.079c11.414,2.956,22.205,7.451,32.141,13.246
					c6.968,4.061,13.515,8.764,19.561,14.028c4.477,3.896,8.684,8.104,12.581,12.581c5.264,6.046,9.967,12.593,14.028,19.561
					c5.796,9.942,10.29,20.733,13.246,32.148C382.349,264.634,383.766,275.406,383.766,286.509z"/>
				<g>
					<g style="opacity:0.2;">
						<rect x="172.131" y="382.024" style="fill:#EAF1CA;" width="167.7" height="1.832"/>
					</g>
					<g style="opacity:0.2;">
						<rect x="145.523" y="349.883" style="fill:#EAF1CA;" width="220.917" height="1.832"/>
					</g>
					<g style="opacity:0.2;">
						<rect x="132.277" y="317.734" style="fill:#EAF1CA;" width="247.41" height="1.832"/>
					</g>
					<g style="opacity:0.2;">
						<rect x="127.409" y="284.982" style="fill:#EAF1CA;" width="257.151" height="3.053"/>
					</g>
					<g style="opacity:0.2;">
						<rect x="132.277" y="253.452" style="fill:#EAF1CA;" width="247.41" height="1.832"/>
					</g>
					<g style="opacity:0.2;">
						<rect x="145.523" y="221.304" style="fill:#EAF1CA;" width="220.917" height="1.832"/>
					</g>
					<g style="opacity:0.2;">
						<rect x="172.131" y="189.163" style="fill:#EAF1CA;" width="167.7" height="1.832"/>
					</g>
					<g style="opacity:0.2;">
						<rect x="158.634" y="202.659" style="fill:#EAF1CA;" width="1.832" height="167.7"/>
					</g>
					<g style="opacity:0.2;">
						<rect x="190.782" y="176.05" style="fill:#EAF1CA;" width="1.832" height="220.917"/>
					</g>
					<g style="opacity:0.2;">
						<rect x="222.924" y="162.804" style="fill:#EAF1CA;" width="1.832" height="247.41"/>
					</g>
					<g style="opacity:0.2;">
						<rect x="254.454" y="157.937" style="fill:#EAF1CA;" width="3.054" height="257.145"/>
					</g>
					<g style="opacity:0.2;">
						<rect x="287.213" y="162.804" style="fill:#EAF1CA;" width="1.832" height="247.41"/>
					</g>
					<g style="opacity:0.2;">
						<rect x="319.355" y="176.05" style="fill:#EAF1CA;" width="1.832" height="220.917"/>
					</g>
					<g style="opacity:0.2;">
						<rect x="351.496" y="202.659" style="fill:#EAF1CA;" width="1.832" height="167.7"/>
					</g>
				</g>
			</g>
			<path style="opacity:0.1;fill:#050101;" d="M351.435,203.514v-0.916h-1.075c-5.478-4.66-11.353-8.867-17.57-12.562v-0.55h-0.916
				c-9.667-5.637-20.147-10.04-31.225-12.996v-0.25h-0.916c-4.898-1.27-9.912-2.253-15.023-2.931
				c-5.105-0.678-10.315-1.057-15.597-1.124v-0.812h-3.054v0.812c-10.559,0.128-20.819,1.515-30.615,4.055h-0.916v0.25
				c-11.072,2.956-21.552,7.353-31.225,12.996h-0.916v0.55c-6.217,3.695-12.092,7.903-17.57,12.562h-1.081v0.916
				c-4.477,3.896-8.684,8.104-12.581,12.581h-0.916v1.081c-4.66,5.478-8.867,11.347-12.562,17.564h-0.55v0.916
				c-5.637,9.68-10.04,20.16-13.002,31.232h-0.244v0.916c-1.27,4.898-2.254,9.912-2.931,15.023
				c-0.684,5.105-1.063,10.309-1.124,15.591h-0.812v3.053h0.812c0.122,10.565,1.515,20.825,4.055,30.615v0.916h0.244
				c2.962,11.078,7.365,21.558,13.002,31.232v0.916h0.55c2.345,3.945,4.892,7.75,7.634,11.402c-1.985-2.003-3.908-4.067-5.759-6.193
				h-0.916v-1.075c-4.66-5.478-8.868-11.353-12.562-17.57h-0.55v-0.916c-5.637-9.674-10.04-20.153-13.002-31.232h-0.244v-0.916
				c-2.541-9.79-3.933-20.049-4.055-30.615h-0.812v-3.053h0.812c0.061-5.283,0.44-10.486,1.124-15.591
				c0.678-5.112,1.661-10.126,2.931-15.024v-0.916h0.244c2.962-11.072,7.365-21.552,13.002-31.231v-0.916h0.55
				c3.695-6.217,7.903-12.086,12.562-17.564v-1.081h0.916c3.896-4.477,8.104-8.684,12.581-12.581v-0.916h1.081
				c5.478-4.66,11.353-8.867,17.57-12.562v-0.55h0.916c9.674-5.643,20.153-10.04,31.225-12.996v-0.25h0.916
				c9.796-2.541,20.056-3.927,30.615-4.055v-0.812h3.054v0.812c5.283,0.067,10.492,0.446,15.598,1.124
				c5.112,0.678,10.126,1.661,15.023,2.931h0.916v0.25c11.078,2.956,21.558,7.359,31.225,12.996h0.916v0.55
				c6.217,3.695,12.092,7.903,17.57,12.562h1.075v0.916c4.477,3.896,8.684,8.104,12.581,12.581h0.916v1.081
				c1.698,1.997,3.341,4.043,4.91,6.144C356.045,207.679,353.78,205.554,351.435,203.514z"/>
			<polygon style="fill:#EB6B6B;" points="234.428,303.648 255.981,266.316 277.535,303.648 			"/>
			<circle style="fill:#F5F189;" cx="303.734" cy="226.23" r="16.522"/>
			<circle style="fill:#F5F189;" cx="308.145" cy="366.541" r="7.7"/>
			<circle style="fill:#F5F189;" cx="178.845" cy="301.806" r="7.7"/>
		</g>
		<path style="opacity:0.06;fill:#040000;" d="M363.912,170.265L139.746,394.432c1.332,1.432,2.684,2.851,4.074,4.241
			c29.96,29.961,69.794,46.46,112.164,46.46s82.204-16.5,112.164-46.46c29.961-29.96,46.46-69.794,46.46-112.164
			s-16.5-82.204-46.46-112.164C366.758,172.954,365.344,171.597,363.912,170.265z"/>
	</g>
</g>
</svg>
