<?xml version="1.0" encoding="UTF-8" standalone="no"?>
<!-- Generator: Adobe Illustrator 18.0.0, SVG Export Plug-In . SVG Version: 6.00 Build 0)  -->

<svg
   xmlns:dc="http://purl.org/dc/elements/1.1/"
   xmlns:cc="http://creativecommons.org/ns#"
   xmlns:rdf="http://www.w3.org/1999/02/22-rdf-syntax-ns#"
   xmlns:svg="http://www.w3.org/2000/svg"
   xmlns="http://www.w3.org/2000/svg"
   xmlns:sodipodi="http://sodipodi.sourceforge.net/DTD/sodipodi-0.dtd"
   xmlns:inkscape="http://www.inkscape.org/namespaces/inkscape"
   version="1.1"
   id="_x30_"
   x="0px"
   y="0px"
   viewBox="0 0 1024 1024"
   xml:space="preserve"
   inkscape:version="0.91 r13725"
   sodipodi:docname="HiddenPokemonSearcher.svg"
   width="1024"
   height="1024"
   inkscape:export-filename="/Volumes/SD/Development/Projects/xinext/iOS/HiddenPokemonSearcher/docs/image/icon_1024.png"
   inkscape:export-xdpi="90"
   inkscape:export-ydpi="90"><metadata
     id="metadata4378"><rdf:RDF><cc:Work
         rdf:about=""><dc:format>image/svg+xml</dc:format><dc:type
           rdf:resource="http://purl.org/dc/dcmitype/StillImage" /><dc:title /></cc:Work></rdf:RDF></metadata><defs
     id="defs4376" /><sodipodi:namedview
     pagecolor="#ffffff"
     bordercolor="#666666"
     borderopacity="1"
     objecttolerance="10"
     gridtolerance="10"
     guidetolerance="10"
     inkscape:pageopacity="0"
     inkscape:pageshadow="2"
     inkscape:window-width="1902"
     inkscape:window-height="1041"
     id="namedview4374"
     showgrid="false"
     inkscape:zoom="0.45014485"
     inkscape:cx="441.74826"
     inkscape:cy="323.40523"
     inkscape:window-x="0"
     inkscape:window-y="0"
     inkscape:window-maximized="0"
     inkscape:current-layer="layer1" /><g
     inkscape:groupmode="layer"
     id="layer2"
     inkscape:label="back"
     style="display:inline"><rect
       style="fill:#58656e;fill-opacity:1;stroke:none;stroke-width:10.5;stroke-linejoin:miter;stroke-miterlimit:4;stroke-dasharray:none;stroke-opacity:1"
       id="rect4380"
       width="1024"
       height="1024"
       x="0"
       y="0" /></g><g
     inkscape:groupmode="layer"
     id="layer1"
     inkscape:label="icon"
     style="display:inline"><g
       id="g4278"
       transform="scale(2,2)"><rect
         style="opacity:0;fill:#ffffff"
         width="512"
         height="512"
         id="rect4280"
         x="0"
         y="0" /><path
         style="opacity:0.1;fill:#040000"
         d="M 512,299.93 512,512 262.247,512 131.431,381.184 c -19.61,-26.88 -30.259,-59.238 -30.259,-93.184 0,-12.186 1.382,-24.166 4.096,-35.789 L 284.723,72.704 291.994,79.923 512,299.93 Z"
         id="path4282"
         inkscape:connector-curvature="0" /><g
         id="g4284"><g
           id="g4286"><path
             style="opacity:0.1;fill:#040000"
             d="m 298.027,133.484 c -13.518,-3.708 -27.664,-5.59 -42.038,-5.59 -14.431,0 -28.577,1.939 -42.095,5.647 0.627,-2.11 1.483,-4.107 2.51,-5.989 1.141,-2.281 2.51,-4.392 4.107,-6.331 11.522,-2.624 23.329,-3.936 35.478,-3.936 12.035,0 23.899,1.313 35.421,3.936 1.597,1.939 2.966,4.05 4.107,6.274 1.027,1.882 1.825,3.878 2.51,5.989 z"
             id="path4288"
             inkscape:connector-curvature="0" /><path
             style="fill:#ededec"
             d="m 277.664,122.562 -43.36,0 0,-22.901 c 0,-11.924 9.756,-21.68 21.68,-21.68 l 0,0 c 11.924,0 21.68,9.756 21.68,21.68 l 0,22.901 z"
             id="path4290"
             inkscape:connector-curvature="0" /><path
             style="fill:#fffef9"
             d="m 274.675,94.207 -37.382,0 c -7.553,0 -13.676,-6.123 -13.676,-13.676 l 0,0 c 0,-7.522 6.154,-13.676 13.676,-13.676 l 37.382,0 c 7.522,0 13.676,6.154 13.676,13.676 l 0,0 c 10e-4,7.553 -6.122,13.676 -13.676,13.676 z"
             id="path4292"
             inkscape:connector-curvature="0" /><path
             style="fill:#fffef9"
             d="m 414.626,286.52 c 0,42.38 -16.541,82.193 -46.487,112.138 -29.945,30.003 -69.759,46.488 -112.139,46.488 -33.881,0 -66.165,-10.552 -93.031,-30.117 -6.73,-4.905 -13.176,-10.381 -19.165,-16.37 -1.369,-1.369 -2.738,-2.795 -4.05,-4.221 -4.392,-4.735 -8.442,-9.639 -12.149,-14.774 -19.621,-26.865 -30.231,-59.206 -30.231,-93.144 0,-12.207 1.369,-24.185 4.05,-35.821 6.559,-28.691 21.047,-55.043 42.38,-76.376 19.792,-19.735 43.863,-33.653 70.101,-40.783 0.057,0 0.114,-0.057 0.171,-0.057 1.654,-0.457 3.251,-0.856 4.905,-1.255 0.399,-0.114 0.799,-0.171 1.198,-0.285 1.312,-0.286 2.624,-0.57 3.993,-0.855 1.255,-0.228 2.566,-0.514 3.879,-0.742 0.798,-0.114 1.654,-0.285 2.453,-0.399 1.084,-0.171 2.225,-0.342 3.308,-0.513 2.852,-0.4 5.704,-0.742 8.556,-0.97 1.369,-0.114 2.681,-0.228 4.05,-0.285 1.369,-0.057 2.738,-0.171 4.05,-0.171 1.825,-0.057 3.707,-0.114 5.533,-0.114 1.825,0 3.651,0.057 5.419,0.114 1.426,0 2.852,0.114 4.221,0.171 1.198,0.057 2.396,0.171 3.594,0.285 0.97,0.057 1.882,0.114 2.795,0.228 2.795,0.286 5.533,0.628 8.214,1.027 2.168,0.343 4.335,0.684 6.503,1.141 l 1.027,0.171 c 2.167,0.456 4.392,0.969 6.56,1.483 0.456,0.114 0.855,0.228 1.312,0.342 0.799,0.171 1.597,0.399 2.395,0.684 24.413,6.616 46.944,19.108 65.881,36.733 1.426,1.312 2.852,2.681 4.221,4.05 29.942,30.003 46.483,69.817 46.483,112.197 z"
             id="path4294"
             inkscape:connector-curvature="0" /><path
             style="fill:#fffef9"
             d="m 299.624,144.207 -87.327,0 c 0,-3.708 0.57,-7.301 1.597,-10.666 0.627,-2.11 1.483,-4.107 2.51,-5.989 1.141,-2.281 2.51,-4.392 4.107,-6.331 0.798,-1.027 1.654,-1.996 2.566,-2.909 6.617,-6.617 15.8,-10.78 25.896,-10.78 l 14.031,0 c 11.465,0 21.732,5.362 28.406,13.69 1.597,1.939 2.966,4.05 4.107,6.274 1.027,1.883 1.825,3.879 2.51,5.989 l 0,0.057 c 1.027,3.421 1.597,6.957 1.597,10.665 z"
             id="path4296"
             inkscape:connector-curvature="0" /><path
             style="opacity:0.1;fill:#040000"
             d="m 298.027,133.484 c -13.518,-3.708 -27.664,-5.59 -42.038,-5.59 -14.431,0 -28.577,1.939 -42.095,5.647 0.627,-2.11 1.483,-4.107 2.51,-5.989 12.777,-3.308 26.01,-4.962 39.585,-4.962 13.518,0 26.751,1.654 39.528,4.905 1.027,1.882 1.825,3.878 2.51,5.989 z"
             id="path4298"
             inkscape:connector-curvature="0" /><g
             id="g4300"><path
               style="fill:#3aae36"
               d="m 383.766,286.509 c 0,11.103 -1.417,21.876 -4.079,32.142 -2.956,11.414 -7.451,22.205 -13.246,32.148 -4.061,6.968 -8.764,13.515 -14.028,19.561 -3.896,4.476 -8.104,8.684 -12.581,12.58 -6.046,5.264 -12.593,9.967 -19.561,14.028 -9.936,5.796 -20.727,10.29 -32.141,13.246 -10.272,2.663 -21.045,4.08 -32.148,4.08 -11.103,0 -21.875,-1.417 -32.141,-4.08 -11.414,-2.956 -22.205,-7.444 -32.142,-13.246 -6.968,-4.061 -13.515,-8.764 -19.567,-14.028 -4.477,-3.896 -8.684,-8.104 -12.581,-12.58 -5.264,-6.046 -9.967,-12.593 -14.028,-19.561 -5.796,-9.942 -10.29,-20.734 -13.246,-32.148 -2.663,-10.266 -4.079,-21.039 -4.079,-32.142 0,-11.103 1.417,-21.876 4.079,-32.142 2.956,-11.414 7.451,-22.205 13.246,-32.148 4.061,-6.968 8.764,-13.515 14.028,-19.561 3.896,-4.477 8.104,-8.684 12.581,-12.581 6.052,-5.264 12.599,-9.967 19.567,-14.028 9.936,-5.802 20.728,-10.29 32.142,-13.246 10.266,-2.663 21.039,-4.079 32.141,-4.079 11.103,0 21.876,1.417 32.148,4.079 11.414,2.956 22.205,7.451 32.141,13.246 6.968,4.061 13.515,8.764 19.561,14.028 4.477,3.896 8.684,8.104 12.581,12.581 5.264,6.046 9.967,12.593 14.028,19.561 5.796,9.942 10.29,20.733 13.246,32.148 2.662,10.267 4.079,21.039 4.079,32.142 z"
               id="path4302"
               inkscape:connector-curvature="0" /><g
               id="g4304"><g
                 style="opacity:0.2"
                 id="g4306"><rect
                   x="172.131"
                   y="382.02399"
                   style="fill:#eaf1ca"
                   width="167.7"
                   height="1.832"
                   id="rect4308" /></g><g
                 style="opacity:0.2"
                 id="g4310"><rect
                   x="145.52299"
                   y="349.883"
                   style="fill:#eaf1ca"
                   width="220.91701"
                   height="1.832"
                   id="rect4312" /></g><g
                 style="opacity:0.2"
                 id="g4314"><rect
                   x="132.27699"
                   y="317.73401"
                   style="fill:#eaf1ca"
                   width="247.41"
                   height="1.832"
                   id="rect4316" /></g><g
                 style="opacity:0.2"
                 id="g4318"><rect
                   x="127.409"
                   y="284.98199"
                   style="fill:#eaf1ca"
                   width="257.151"
                   height="3.053"
                   id="rect4320" /></g><g
                 style="opacity:0.2"
                 id="g4322"><rect
                   x="132.27699"
                   y="253.452"
                   style="fill:#eaf1ca"
                   width="247.41"
                   height="1.832"
                   id="rect4324" /></g><g
                 style="opacity:0.2"
                 id="g4326"><rect
                   x="145.52299"
                   y="221.304"
                   style="fill:#eaf1ca"
                   width="220.91701"
                   height="1.832"
                   id="rect4328" /></g><g
                 style="opacity:0.2"
                 id="g4330"><rect
                   x="172.131"
                   y="189.16299"
                   style="fill:#eaf1ca"
                   width="167.7"
                   height="1.832"
                   id="rect4332" /></g><g
                 style="opacity:0.2"
                 id="g4334"><rect
                   x="158.634"
                   y="202.659"
                   style="fill:#eaf1ca"
                   width="1.832"
                   height="167.7"
                   id="rect4336" /></g><g
                 style="opacity:0.2"
                 id="g4338"><rect
                   x="190.782"
                   y="176.05"
                   style="fill:#eaf1ca"
                   width="1.832"
                   height="220.91701"
                   id="rect4340" /></g><g
                 style="opacity:0.2"
                 id="g4342"><rect
                   x="222.924"
                   y="162.804"
                   style="fill:#eaf1ca"
                   width="1.832"
                   height="247.41"
                   id="rect4344" /></g><g
                 style="opacity:0.2"
                 id="g4346"><rect
                   x="254.45399"
                   y="157.937"
                   style="fill:#eaf1ca"
                   width="3.0539999"
                   height="257.14499"
                   id="rect4348" /></g><g
                 style="opacity:0.2"
                 id="g4350"><rect
                   x="287.21301"
                   y="162.804"
                   style="fill:#eaf1ca"
                   width="1.832"
                   height="247.41"
                   id="rect4352" /></g><g
                 style="opacity:0.2"
                 id="g4354"><rect
                   x="319.35501"
                   y="176.05"
                   style="fill:#eaf1ca"
                   width="1.832"
                   height="220.91701"
                   id="rect4356" /></g><g
                 style="opacity:0.2"
                 id="g4358"><rect
                   x="351.496"
                   y="202.659"
                   style="fill:#eaf1ca"
                   width="1.832"
                   height="167.7"
                   id="rect4360" /></g></g></g><path
             style="opacity:0.1;fill:#050101"
             d="m 351.435,203.514 0,-0.916 -1.075,0 c -5.478,-4.66 -11.353,-8.867 -17.57,-12.562 l 0,-0.55 -0.916,0 c -9.667,-5.637 -20.147,-10.04 -31.225,-12.996 l 0,-0.25 -0.916,0 c -4.898,-1.27 -9.912,-2.253 -15.023,-2.931 -5.105,-0.678 -10.315,-1.057 -15.597,-1.124 l 0,-0.812 -3.054,0 0,0.812 c -10.559,0.128 -20.819,1.515 -30.615,4.055 l -0.916,0 0,0.25 c -11.072,2.956 -21.552,7.353 -31.225,12.996 l -0.916,0 0,0.55 c -6.217,3.695 -12.092,7.903 -17.57,12.562 l -1.081,0 0,0.916 c -4.477,3.896 -8.684,8.104 -12.581,12.581 l -0.916,0 0,1.081 c -4.66,5.478 -8.867,11.347 -12.562,17.564 l -0.55,0 0,0.916 c -5.637,9.68 -10.04,20.16 -13.002,31.232 l -0.244,0 0,0.916 c -1.27,4.898 -2.254,9.912 -2.931,15.023 -0.684,5.105 -1.063,10.309 -1.124,15.591 l -0.812,0 0,3.053 0.812,0 c 0.122,10.565 1.515,20.825 4.055,30.615 l 0,0.916 0.244,0 c 2.962,11.078 7.365,21.558 13.002,31.232 l 0,0.916 0.55,0 c 2.345,3.945 4.892,7.75 7.634,11.402 -1.985,-2.003 -3.908,-4.067 -5.759,-6.193 l -0.916,0 0,-1.075 c -4.66,-5.478 -8.868,-11.353 -12.562,-17.57 l -0.55,0 0,-0.916 c -5.637,-9.674 -10.04,-20.153 -13.002,-31.232 l -0.244,0 0,-0.916 c -2.541,-9.79 -3.933,-20.049 -4.055,-30.615 l -0.812,0 0,-3.053 0.812,0 c 0.061,-5.283 0.44,-10.486 1.124,-15.591 0.678,-5.112 1.661,-10.126 2.931,-15.024 l 0,-0.916 0.244,0 c 2.962,-11.072 7.365,-21.552 13.002,-31.231 l 0,-0.916 0.55,0 c 3.695,-6.217 7.903,-12.086 12.562,-17.564 l 0,-1.081 0.916,0 c 3.896,-4.477 8.104,-8.684 12.581,-12.581 l 0,-0.916 1.081,0 c 5.478,-4.66 11.353,-8.867 17.57,-12.562 l 0,-0.55 0.916,0 c 9.674,-5.643 20.153,-10.04 31.225,-12.996 l 0,-0.25 0.916,0 c 9.796,-2.541 20.056,-3.927 30.615,-4.055 l 0,-0.812 3.054,0 0,0.812 c 5.283,0.067 10.492,0.446 15.598,1.124 5.112,0.678 10.126,1.661 15.023,2.931 l 0.916,0 0,0.25 c 11.078,2.956 21.558,7.359 31.225,12.996 l 0.916,0 0,0.55 c 6.217,3.695 12.092,7.903 17.57,12.562 l 1.075,0 0,0.916 c 4.477,3.896 8.684,8.104 12.581,12.581 l 0.916,0 0,1.081 c 1.698,1.997 3.341,4.043 4.91,6.144 -2.195,-2.205 -4.46,-4.33 -6.805,-6.37 z"
             id="path4362"
             inkscape:connector-curvature="0" /><polygon
             style="fill:#eb6b6b"
             points="234.428,303.648 255.981,266.316 277.535,303.648 "
             id="polygon4364" /><circle
             style="fill:#f5f189"
             cx="303.73401"
             cy="226.23"
             r="16.521999"
             id="circle4366" /><circle
             style="fill:#f5f189"
             cx="308.14499"
             cy="366.54099"
             r="7.6999998"
             id="circle4368" /><circle
             style="fill:#f5f189"
             cx="178.845"
             cy="301.806"
             r="7.6999998"
             id="circle4370" /></g><path
           style="opacity:0.06000001;fill:#040000"
           d="M 363.912,170.265 139.746,394.432 c 1.332,1.432 2.684,2.851 4.074,4.241 29.96,29.961 69.794,46.46 112.164,46.46 42.37,0 82.204,-16.5 112.164,-46.46 29.961,-29.96 46.46,-69.794 46.46,-112.164 0,-42.37 -16.5,-82.204 -46.46,-112.164 -1.39,-1.391 -2.804,-2.748 -4.236,-4.08 z"
           id="path4372"
           inkscape:connector-curvature="0" /></g></g><rect
       style="fill:#0000f9;fill-opacity:0.64640886;stroke:none;stroke-width:10.5;stroke-linejoin:miter;stroke-miterlimit:4;stroke-dasharray:none;stroke-opacity:1"
       id="rect4215"
       width="452.88513"
       height="47.924492"
       x="526.11621"
       y="88.011765"
       transform="matrix(0.82833118,0.56023875,-0.61712469,0.78686538,0,0)" /><rect
       style="fill:#ff0000;fill-opacity:1;stroke:none;stroke-width:10.5;stroke-linejoin:miter;stroke-miterlimit:4;stroke-dasharray:none;stroke-opacity:1"
       id="rect4217"
       width="460.61044"
       height="19.45517"
       x="-376.06424"
       y="683.02484"
       transform="matrix(0.55219224,-0.83371682,0.79602229,0.6052673,0,0)"
       inkscape:transform-center-x="-70.534693"
       inkscape:transform-center-y="-122.08272" /><rect
       transform="matrix(0.83865917,0.54465659,-0.55709968,0.83044563,0,0)"
       y="115.34962"
       x="592.96387"
       height="17.772896"
       width="176.41943"
       id="rect4239"
       style="display:inline;fill:#ffa500;fill-opacity:1;stroke:none;stroke-width:10.5;stroke-linejoin:miter;stroke-miterlimit:4;stroke-dasharray:none;stroke-opacity:1" /></g><g
     inkscape:groupmode="layer"
     id="layer3"
     inkscape:label="text" /></svg>